<?xml version="1.0"?>
<svg xmlns="http://www.w3.org/2000/svg" xmlnsXlink="http://www.w3.org/1999/xlink" version="1.1" x="0" y="0" viewBox="0 0 512 512" style="enable-background:new 0 0 512 512" xmlSpace="preserve" class=""><g><g xmlns="http://www.w3.org/2000/svg"><ellipse cx="254.54" cy="256" fill="#ffffff" rx="254.54" ry="255.981" dataOriginal="#b3ceec" style="" class=""/><path d="m222.599 380.628h-50.736c-3.983 0-7.211-3.229-7.211-7.211v-234.834c0-3.983 3.229-7.211 7.211-7.211h50.736c3.983 0 7.211 3.229 7.211 7.211v234.834c0 3.983-3.228 7.211-7.211 7.211z" fill="#000000" dataOriginal="#5f99d7" style="" class=""/><path d="m340.137 380.628h-50.736c-3.983 0-7.211-3.229-7.211-7.211v-234.834c0-3.983 3.229-7.211 7.211-7.211h50.736c3.983 0 7.211 3.229 7.211 7.211v234.834c0 3.983-3.228 7.211-7.211 7.211z" fill="#000000" dataOriginal="#5f99d7" style="" class=""/><path d="m256 0c-5.891 0-11.73.217-17.521.609 133.21 9.006 238.479 119.897 238.479 255.391s-105.269 246.385-238.479 255.391c5.791.392 11.63.609 17.521.609 141.385 0 256-114.615 256-256s-114.615-256-256-256z" fill="#ffffff" dataOriginal="#98bce5" style="" class=""/></g></g></svg>
