<?xml version="1.0"?>
<svg xmlns="http://www.w3.org/2000/svg" xmlnsXlink="http://www.w3.org/1999/xlink" version="1.1" x="0" y="0" viewBox="0 0 512 512" style="enable-background:new 0 0 512 512" xmlSpace="preserve"><g><linearGradient xmlns="http://www.w3.org/2000/svg" id="SVGID_1_" gradientUnits="userSpaceOnUse" x1="256" x2="256" y1="512" y2="0"><stop stopOpacity="1" stopColor="#ffffff" offset="0"/><stop stopOpacity="1" stopColor="#ffffff" offset="1"/></linearGradient><linearGradient xmlns="http://www.w3.org/2000/svg" id="SVGID_2_" gradientUnits="userSpaceOnUse" x1="271" x2="271" y1="391.007" y2="121"><stop stopOpacity="1" stopColor="#000000" offset="0"/><stop stopOpacity="1" stopColor="#000000" offset="0.9845559845559846"/></linearGradient><g xmlns="http://www.w3.org/2000/svg"><path d="m256 512c-141.574 0-256-114.389-256-256 0-141.575 114.39-256 256-256 141.575 0 256 114.389 256 256 0 141.574-114.389 256-256 256z" fill="url(#SVGID_1_)" dataOriginal="url(#SVGID_1_)" style=""/><path d="m166 376v-240c0-5.532 3.045-10.615 7.922-13.225s10.796-2.324 15.398.744l180 120c4.173 2.782 6.68 7.465 6.68 12.481s-2.506 9.699-6.68 12.481l-180 120c-9.855 6.571-23.32-.408-23.32-12.481z" fill="url(#SVGID_2_)" dataOriginal="url(#SVGID_2_)" style=""/></g></g></svg>
